%TF.GenerationSoftware,KiCad,Pcbnew,7.0.9-7.0.9~ubuntu22.04.1*%
%TF.CreationDate,2025-03-17T10:50:26+02:00*%
%TF.ProjectId,GateMateA1-EVB_Rev_C,47617465-4d61-4746-9541-312d4556425f,C*%
%TF.SameCoordinates,PX5f5e100PY7bfa480*%
%TF.FileFunction,Paste,Bot*%
%TF.FilePolarity,Positive*%
%FSLAX46Y46*%
G04 Gerber Fmt 4.6, Leading zero omitted, Abs format (unit mm)*
G04 Created by KiCad (PCBNEW 7.0.9-7.0.9~ubuntu22.04.1) date 2025-03-17 10:50:26*
%MOMM*%
%LPD*%
G01*
G04 APERTURE LIST*
%ADD10R,0.500000X0.550000*%
%ADD11R,0.550000X0.500000*%
%ADD12C,1.000000*%
G04 APERTURE END LIST*
D10*
%TO.C,C50*%
X58482600Y38800000D03*
X57517400Y38800000D03*
%TD*%
D11*
%TO.C,C27*%
X59600000Y35892000D03*
X59600000Y36908000D03*
%TD*%
%TO.C,C79*%
X64400000Y34608000D03*
X64400000Y33592000D03*
%TD*%
D10*
%TO.C,C53*%
X58482600Y40400000D03*
X57517400Y40400000D03*
%TD*%
%TO.C,C9*%
X66492000Y38700000D03*
X67508000Y38700000D03*
%TD*%
%TO.C,C13*%
X53708000Y37600000D03*
X52692000Y37600000D03*
%TD*%
%TO.C,C65*%
X61392000Y38800000D03*
X62408000Y38800000D03*
%TD*%
D11*
%TO.C,C16*%
X60400000Y47608000D03*
X60400000Y46592000D03*
%TD*%
%TO.C,C2*%
X67600000Y46292000D03*
X67600000Y47308000D03*
%TD*%
%TO.C,C68*%
X54800000Y34508000D03*
X54800000Y33492000D03*
%TD*%
D10*
%TO.C,C43*%
X67192000Y31900000D03*
X68208000Y31900000D03*
%TD*%
%TO.C,C23*%
X57992000Y42800000D03*
X59008000Y42800000D03*
%TD*%
%TO.C,C28*%
X55792000Y40400000D03*
X56808000Y40400000D03*
%TD*%
D12*
%TO.C,FID12*%
X1500000Y73500000D03*
%TD*%
D10*
%TO.C,C17*%
X64158000Y41200000D03*
X63142000Y41200000D03*
%TD*%
%TO.C,C78*%
X64492000Y31000000D03*
X65508000Y31000000D03*
%TD*%
%TO.C,C7*%
X57708000Y47600000D03*
X56692000Y47600000D03*
%TD*%
%TO.C,C69*%
X61392000Y39600000D03*
X62408000Y39600000D03*
%TD*%
%TO.C,C34*%
X67808000Y44200000D03*
X66792000Y44200000D03*
%TD*%
%TO.C,C47*%
X64492000Y31900000D03*
X65508000Y31900000D03*
%TD*%
%TO.C,C38*%
X52442000Y42850000D03*
X53458000Y42850000D03*
%TD*%
%TO.C,C33*%
X64158000Y39600000D03*
X63142000Y39600000D03*
%TD*%
%TO.C,C44*%
X67192000Y32700000D03*
X68208000Y32700000D03*
%TD*%
%TO.C,C36*%
X62108000Y36800000D03*
X61092000Y36800000D03*
%TD*%
%TO.C,R13*%
X63508000Y30600000D03*
X62492000Y30600000D03*
%TD*%
%TO.C,C60*%
X60208000Y41200000D03*
X59192000Y41200000D03*
%TD*%
%TO.C,C31*%
X57992000Y43600000D03*
X59008000Y43600000D03*
%TD*%
%TO.C,C76*%
X53708000Y36000000D03*
X52692000Y36000000D03*
%TD*%
%TO.C,C45*%
X66608000Y33800000D03*
X65592000Y33800000D03*
%TD*%
%TO.C,C14*%
X53708000Y46000000D03*
X52692000Y46000000D03*
%TD*%
%TO.C,C22*%
X56908000Y43600000D03*
X55892000Y43600000D03*
%TD*%
%TO.C,C18*%
X62292000Y43600000D03*
X63308000Y43600000D03*
%TD*%
%TO.C,C49*%
X64492000Y32700000D03*
X65508000Y32700000D03*
%TD*%
%TO.C,C26*%
X62292000Y42800000D03*
X63308000Y42800000D03*
%TD*%
%TO.C,C71*%
X61392000Y38000000D03*
X62408000Y38000000D03*
%TD*%
D11*
%TO.C,C48*%
X62400000Y32192000D03*
X62400000Y33208000D03*
%TD*%
%TO.C,C15*%
X58700000Y46792000D03*
X58700000Y47808000D03*
%TD*%
D10*
%TO.C,C25*%
X64158000Y40400000D03*
X63142000Y40400000D03*
%TD*%
%TO.C,C77*%
X58482600Y39600000D03*
X57517400Y39600000D03*
%TD*%
D11*
%TO.C,C10*%
X66000000Y47308000D03*
X66000000Y46292000D03*
%TD*%
D10*
%TO.C,C51*%
X58482600Y38000000D03*
X57517400Y38000000D03*
%TD*%
%TO.C,C32*%
X60192000Y43600000D03*
X61208000Y43600000D03*
%TD*%
D12*
%TO.C,FID10*%
X118500000Y1500000D03*
%TD*%
D11*
%TO.C,C70*%
X53200000Y34508000D03*
X53200000Y33492000D03*
%TD*%
%TO.C,C11*%
X57600000Y34008000D03*
X57600000Y32992000D03*
%TD*%
D12*
%TO.C,FID11*%
X118500000Y73500000D03*
%TD*%
D10*
%TO.C,C55*%
X61392000Y40400000D03*
X62408000Y40400000D03*
%TD*%
D11*
%TO.C,C35*%
X58000000Y35892000D03*
X58000000Y36908000D03*
%TD*%
%TO.C,C8*%
X63700000Y46592000D03*
X63700000Y47608000D03*
%TD*%
D10*
%TO.C,C5*%
X52692000Y41200000D03*
X53708000Y41200000D03*
%TD*%
D11*
%TO.C,C20*%
X63200000Y38108000D03*
X63200000Y37092000D03*
%TD*%
D10*
%TO.C,C64*%
X61392000Y41200000D03*
X62408000Y41200000D03*
%TD*%
%TO.C,C54*%
X60208000Y40400000D03*
X59192000Y40400000D03*
%TD*%
%TO.C,C56*%
X58482600Y41200000D03*
X57517400Y41200000D03*
%TD*%
%TO.C,C72*%
X55792000Y38800000D03*
X56808000Y38800000D03*
%TD*%
%TO.C,C57*%
X60208000Y38800000D03*
X59192000Y38800000D03*
%TD*%
%TO.C,C41*%
X67008000Y35800000D03*
X65992000Y35800000D03*
%TD*%
D11*
%TO.C,C80*%
X57200000Y35892000D03*
X57200000Y36908000D03*
%TD*%
D10*
%TO.C,C74*%
X55792000Y38000000D03*
X56808000Y38000000D03*
%TD*%
%TO.C,C24*%
X60192000Y42800000D03*
X61208000Y42800000D03*
%TD*%
%TO.C,C37*%
X55792000Y39600000D03*
X56808000Y39600000D03*
%TD*%
%TO.C,C29*%
X56908000Y42800000D03*
X55892000Y42800000D03*
%TD*%
%TO.C,C21*%
X55792000Y41200000D03*
X56808000Y41200000D03*
%TD*%
%TO.C,C61*%
X60208000Y38000000D03*
X59192000Y38000000D03*
%TD*%
D11*
%TO.C,C3*%
X59200000Y32192000D03*
X59200000Y33208000D03*
%TD*%
D10*
%TO.C,C1*%
X67908000Y41900000D03*
X66892000Y41900000D03*
%TD*%
%TO.C,C52*%
X60208000Y39600000D03*
X59192000Y39600000D03*
%TD*%
%TO.C,C6*%
X53708000Y46800000D03*
X52692000Y46800000D03*
%TD*%
D11*
%TO.C,C81*%
X56400000Y35892000D03*
X56400000Y36908000D03*
%TD*%
%TO.C,C19*%
X58800000Y35892000D03*
X58800000Y36908000D03*
%TD*%
M02*
