%TF.GenerationSoftware,KiCad,Pcbnew,7.0.11-7.0.11~ubuntu22.04.1*%
%TF.CreationDate,2024-03-11T16:24:11+02:00*%
%TF.ProjectId,GateMateA1-EVB_Rev_B,47617465-4d61-4746-9541-312d4556425f,B*%
%TF.SameCoordinates,PX5f5e100PY7bfa480*%
%TF.FileFunction,Paste,Top*%
%TF.FilePolarity,Positive*%
%FSLAX46Y46*%
G04 Gerber Fmt 4.6, Leading zero omitted, Abs format (unit mm)*
G04 Created by KiCad (PCBNEW 7.0.11-7.0.11~ubuntu22.04.1) date 2024-03-11 16:24:11*
%MOMM*%
%LPD*%
G01*
G04 APERTURE LIST*
G04 Aperture macros list*
%AMOutline4P*
0 Free polygon, 4 corners , with rotation*
0 The origin of the aperture is its center*
0 number of corners: always 4*
0 $1 to $8 corner X, Y*
0 $9 Rotation angle, in degrees counterclockwise*
0 create outline with 4 corners*
4,1,4,$1,$2,$3,$4,$5,$6,$7,$8,$1,$2,$9*%
G04 Aperture macros list end*
%ADD10R,0.500000X0.550000*%
%ADD11R,0.550000X0.500000*%
%ADD12R,3.556000X1.778000*%
%ADD13R,3.000000X1.600000*%
%ADD14R,3.200000X2.100000*%
%ADD15R,3.000000X2.100000*%
%ADD16R,2.200000X1.100000*%
%ADD17R,2.000000X1.100000*%
%ADD18R,1.130000X0.280000*%
%ADD19R,1.130000X0.230000*%
%ADD20R,4.550000X1.700000*%
%ADD21R,1.700000X4.550000*%
%ADD22R,2.200000X0.600000*%
%ADD23R,0.960000X1.470000*%
%ADD24R,0.750000X0.230000*%
%ADD25R,1.016000X1.016000*%
%ADD26C,1.000000*%
%ADD27R,1.524000X1.270000*%
%ADD28R,1.400000X1.000000*%
%ADD29R,0.800000X0.800000*%
%ADD30Outline4P,-0.850000X-2.275000X0.850000X-2.275000X0.850000X2.275000X-0.850000X2.275000X180.000000*%
%ADD31R,1.016000X0.762000*%
%ADD32R,1.016000X0.508000*%
%ADD33R,2.032000X4.572000*%
%ADD34R,1.270000X1.524000*%
%ADD35R,0.762000X1.016000*%
%ADD36R,0.508000X1.016000*%
%ADD37R,0.886000X0.211000*%
%ADD38R,0.211000X0.886000*%
%ADD39R,0.800000X1.700000*%
%ADD40R,0.949200X0.800000*%
%ADD41R,0.230000X0.750000*%
%ADD42R,0.420000X0.420000*%
%ADD43R,0.350000X1.400000*%
%ADD44R,1.200000X1.400000*%
%ADD45R,1.000000X1.400000*%
%ADD46R,1.600000X3.000000*%
%ADD47R,1.400000X1.200000*%
G04 APERTURE END LIST*
D10*
X11292000Y7000000D03*
X12308000Y7000000D03*
X77100000Y34500000D03*
X76084000Y34500000D03*
D11*
X26200000Y16608000D03*
X26200000Y15592000D03*
D12*
X27413000Y65540000D03*
X22587000Y65540000D03*
X27413000Y63000000D03*
X22587000Y63000000D03*
X27413000Y60460000D03*
X22587000Y60460000D03*
D13*
X92600000Y22800000D03*
X92600000Y25200000D03*
D14*
X6530000Y11072400D03*
X6530000Y20927600D03*
D15*
X2350000Y11072400D03*
X2350000Y20927600D03*
D16*
X6530000Y11072400D03*
X6530000Y20927600D03*
D17*
X2350000Y11072400D03*
X2350000Y20927600D03*
D18*
X7432000Y19325000D03*
X7432000Y18525000D03*
D19*
X7432000Y17250000D03*
X7432000Y16250000D03*
X7432000Y15750000D03*
X7432000Y14750000D03*
D18*
X7432000Y13475000D03*
X7432000Y12675000D03*
X7432000Y12925000D03*
X7432000Y13725000D03*
D19*
X7432000Y14250000D03*
X7432000Y15250000D03*
X7432000Y16750000D03*
X7432000Y17750000D03*
D18*
X7432000Y18275000D03*
X7432000Y19075000D03*
D20*
X117125000Y63320000D03*
X110875000Y63320000D03*
X117125000Y60780000D03*
X110875000Y60780000D03*
X117125000Y58240000D03*
X110875000Y58240000D03*
X117125000Y55700000D03*
X110875000Y55700000D03*
X117125000Y53160000D03*
X110875000Y53160000D03*
X117125000Y50620000D03*
X110875000Y50620000D03*
X117125000Y48080000D03*
X110875000Y48080000D03*
X117125000Y45540000D03*
X110875000Y45540000D03*
X117125000Y43000000D03*
X110875000Y43000000D03*
X117125000Y40460000D03*
X110875000Y40460000D03*
X117125000Y37920000D03*
X110875000Y37920000D03*
X117125000Y35380000D03*
X110875000Y35380000D03*
X117125000Y32840000D03*
X110875000Y32840000D03*
X117125000Y30300000D03*
X110875000Y30300000D03*
X117125000Y27760000D03*
X110875000Y27760000D03*
X117125000Y25220000D03*
X110875000Y25220000D03*
X117125000Y22680000D03*
X110875000Y22680000D03*
D21*
X15570000Y77125000D03*
X15570000Y70875000D03*
X18110000Y77125000D03*
X18110000Y70875000D03*
X20650000Y77125000D03*
X20650000Y70875000D03*
X23190000Y77125000D03*
X23190000Y70875000D03*
X25730000Y77125000D03*
X25730000Y70875000D03*
X28270000Y77125000D03*
X28270000Y70875000D03*
X30810000Y77125000D03*
X30810000Y70875000D03*
X33350000Y77125000D03*
X33350000Y70875000D03*
X35890000Y77125000D03*
X35890000Y70875000D03*
X38430000Y77125000D03*
X38430000Y70875000D03*
X83570000Y77125000D03*
X83570000Y70875000D03*
X86110000Y77125000D03*
X86110000Y70875000D03*
X88650000Y77125000D03*
X88650000Y70875000D03*
X91190000Y77125000D03*
X91190000Y70875000D03*
X93730000Y77125000D03*
X93730000Y70875000D03*
X96270000Y77125000D03*
X96270000Y70875000D03*
X98810000Y77125000D03*
X98810000Y70875000D03*
X101350000Y77125000D03*
X101350000Y70875000D03*
X103890000Y77125000D03*
X103890000Y70875000D03*
X106430000Y77125000D03*
X106430000Y70875000D03*
D22*
X20035000Y10095000D03*
X20035000Y11365000D03*
X20035000Y12635000D03*
X20035000Y13905000D03*
X13565000Y13905000D03*
X13565000Y12635000D03*
X13565000Y11365000D03*
X13565000Y10095000D03*
D10*
X41908000Y55000000D03*
X40892000Y55000000D03*
D23*
X48095000Y10810000D03*
X48095000Y3190000D03*
X49365000Y10810000D03*
X49365000Y3190000D03*
X50635000Y10810000D03*
X50635000Y3190000D03*
X51905000Y10810000D03*
X51905000Y3190000D03*
D10*
X62892000Y28900000D03*
X63908000Y28900000D03*
D24*
X95675000Y19000000D03*
X95675000Y19500000D03*
X95675000Y20000000D03*
X94125000Y19000000D03*
X94125000Y19500000D03*
X94125000Y20000000D03*
D10*
X37492000Y11000000D03*
X38508000Y11000000D03*
D22*
X33500000Y54905000D03*
X33500000Y53635000D03*
X33500000Y52365000D03*
X33500000Y51095000D03*
X38500000Y51095000D03*
X38500000Y52365000D03*
X38500000Y53635000D03*
X38500000Y54905000D03*
D10*
X11292000Y44000000D03*
X12308000Y44000000D03*
X103600000Y61900000D03*
X104616000Y61900000D03*
D11*
X101750000Y37392000D03*
X101750000Y38408000D03*
X86800000Y13508000D03*
X86800000Y12492000D03*
X60300001Y18492000D03*
X60300001Y19508000D03*
D10*
X77100000Y33500000D03*
X76084000Y33500000D03*
X15908000Y23800000D03*
X14892000Y23800000D03*
D11*
X91400000Y19492000D03*
X91400000Y20508000D03*
D10*
X71008000Y30800000D03*
X69992000Y30800000D03*
D11*
X18000000Y37492001D03*
X18000000Y38508001D03*
D25*
X99750000Y38788999D03*
X99750000Y37010999D03*
D10*
X14892000Y21000000D03*
X15908000Y21000000D03*
D11*
X70000000Y33492000D03*
X70000000Y34508000D03*
D25*
X22600000Y47300000D03*
X24378000Y47300000D03*
D26*
X118500000Y1500000D03*
D11*
X91400000Y17508000D03*
X91400000Y16492000D03*
D10*
X15908000Y34000000D03*
X14892000Y34000000D03*
D11*
X85700000Y13508000D03*
X85700000Y12492000D03*
X26400000Y50292000D03*
X26400000Y51308000D03*
D10*
X12308000Y40400000D03*
X11292000Y40400000D03*
D11*
X71500000Y39008000D03*
X71500000Y37992000D03*
D10*
X2758000Y8000000D03*
X1742000Y8000000D03*
X38508000Y10000000D03*
X37492000Y10000000D03*
D27*
X79100000Y22116000D03*
X79100000Y20084000D03*
D10*
X41492000Y35900000D03*
X42508000Y35900000D03*
D28*
X103750000Y35999999D03*
X103750000Y39799999D03*
D11*
X28250000Y4508000D03*
X28250000Y3492000D03*
X37250000Y3492000D03*
X37250000Y4508000D03*
X80800000Y20592000D03*
X80800000Y21608000D03*
D10*
X29508000Y10000000D03*
X28492000Y10000000D03*
X11292000Y55200000D03*
X12308000Y55200000D03*
X12308000Y58000000D03*
X11292000Y58000000D03*
D29*
X4738000Y8000000D03*
X6262000Y8000000D03*
D11*
X97300000Y17508000D03*
X97300000Y16492000D03*
X78300000Y34508000D03*
X78300000Y33492000D03*
D26*
X118500000Y73500000D03*
D10*
X15908000Y16800000D03*
X14892000Y16800000D03*
D22*
X33500000Y47905000D03*
X33500000Y46635000D03*
X33500000Y45365000D03*
X33500000Y44095000D03*
X38500000Y44095000D03*
X38500000Y45365000D03*
X38500000Y46635000D03*
X38500000Y47905000D03*
D10*
X36908000Y20400000D03*
X35892000Y20400000D03*
D25*
X76711000Y13600000D03*
X78489000Y13600000D03*
D10*
X11292000Y45400000D03*
X12308000Y45400000D03*
D26*
X1500000Y73500000D03*
D10*
X35892000Y26000000D03*
X36908000Y26000000D03*
X12308001Y53800000D03*
X11292001Y53800000D03*
X11292001Y62200000D03*
X12308001Y62200000D03*
D29*
X31238000Y10000000D03*
X32762000Y10000000D03*
D11*
X107250000Y22508000D03*
X107250000Y21492000D03*
D27*
X96400000Y25016000D03*
X96400000Y22984000D03*
D11*
X64800000Y27092000D03*
X64800000Y28108000D03*
D10*
X62892000Y27500000D03*
X63908000Y27500000D03*
D11*
X72200000Y30808000D03*
X72200000Y29792000D03*
D10*
X62892000Y26100000D03*
X63908000Y26100000D03*
X35892000Y27393800D03*
X36908000Y27393800D03*
X29508000Y12000000D03*
X28492000Y12000000D03*
D25*
X94011000Y16500000D03*
X95789000Y16500000D03*
D11*
X20400000Y50292000D03*
X20400000Y51308000D03*
D10*
X11292000Y51000000D03*
X12308000Y51000000D03*
D30*
X91080000Y2875000D03*
X91080000Y9125000D03*
X88540000Y2875000D03*
X88540000Y9125000D03*
X86000000Y2875000D03*
X86000000Y9125000D03*
X83460000Y2875000D03*
X83460000Y9125000D03*
X80920000Y2875000D03*
X80920000Y9125000D03*
D11*
X80150000Y16092000D03*
X80150000Y17108000D03*
D10*
X61508000Y52200000D03*
X60492000Y52200000D03*
D11*
X21500000Y16608000D03*
X21500000Y15592000D03*
D10*
X11292000Y63600000D03*
X12308000Y63600000D03*
D31*
X42762000Y29830000D03*
X41238000Y29830000D03*
D32*
X42762000Y30719000D03*
X41238000Y30719000D03*
X42762000Y31481000D03*
X41238000Y31481000D03*
D31*
X42762000Y32370000D03*
X41238000Y32370000D03*
D13*
X21400000Y53200000D03*
X21400000Y55600000D03*
D28*
X38925000Y5075000D03*
X38925000Y2925000D03*
X43075000Y5075000D03*
X43075000Y2925000D03*
D10*
X106308000Y28200000D03*
X105292000Y28200000D03*
D33*
X64770000Y13000000D03*
X62230000Y13000000D03*
D11*
X58800000Y29808000D03*
X58800000Y28792000D03*
D28*
X29925000Y5075000D03*
X29925000Y2925000D03*
X34075000Y5075000D03*
X34075000Y2925000D03*
D31*
X30362000Y35230000D03*
X28838000Y35230000D03*
D32*
X30362000Y36119000D03*
X28838000Y36119000D03*
X30362000Y36881000D03*
X28838000Y36881000D03*
D31*
X30362000Y37770000D03*
X28838000Y37770000D03*
D11*
X71200000Y33492000D03*
X71200000Y34508000D03*
D34*
X96084000Y60600000D03*
X98116000Y60600000D03*
D11*
X89750000Y18992000D03*
X89750000Y20008000D03*
X69600000Y18492000D03*
X69600000Y19508000D03*
X56200000Y16708000D03*
X56200000Y15692000D03*
X26400000Y35692000D03*
X26400000Y36708000D03*
D10*
X41492000Y34700000D03*
X42508000Y34700000D03*
X32892000Y24600000D03*
X33908000Y24600000D03*
D34*
X66100000Y24584000D03*
X66100000Y26616000D03*
D35*
X48730000Y13428000D03*
X48730000Y14952000D03*
D36*
X49619000Y13428000D03*
X49619000Y14952000D03*
X50381000Y13428000D03*
X50381000Y14952000D03*
D35*
X51270000Y13428000D03*
X51270000Y14952000D03*
D22*
X32765000Y38405000D03*
X32765000Y37135000D03*
X32765000Y35865000D03*
X32765000Y34595000D03*
X39235000Y34595000D03*
X39235000Y35865000D03*
X39235000Y37135000D03*
X39235000Y38405000D03*
D11*
X20400000Y35692000D03*
X20400000Y36708000D03*
D13*
X21400000Y38600000D03*
X21400000Y41000000D03*
D10*
X11292000Y48200000D03*
X12308000Y48200000D03*
X105292000Y26600000D03*
X106308000Y26600000D03*
X11292001Y59400000D03*
X12308001Y59400000D03*
X32892000Y21800000D03*
X33908000Y21800000D03*
D37*
X20862500Y24606200D03*
X20862500Y24206200D03*
X20862500Y23806200D03*
X20862500Y23406200D03*
X20862500Y23006200D03*
X20862500Y22606200D03*
X20862500Y22206200D03*
X20862500Y21806200D03*
X20862500Y21406200D03*
X20862500Y21006200D03*
X20862500Y20606200D03*
X20862500Y20206200D03*
X20862500Y19806200D03*
X20862500Y19406200D03*
D38*
X21700000Y25443700D03*
X21700000Y18568700D03*
X22100000Y25443700D03*
X22100000Y18568700D03*
X22500000Y25443700D03*
X22500000Y18568700D03*
X22900000Y25443700D03*
X22900000Y18568700D03*
D39*
X23106200Y22006200D03*
D38*
X23300000Y25443700D03*
X23300000Y18568700D03*
X23700000Y25443700D03*
X23700000Y18568700D03*
X24100000Y25443700D03*
X24100000Y18568700D03*
D40*
X24300000Y23200000D03*
X24300000Y20812400D03*
D38*
X24500000Y25443700D03*
X24500000Y18568700D03*
X24900000Y25443700D03*
X24900000Y18568700D03*
X25300000Y25443700D03*
X25300000Y18568700D03*
D39*
X25493800Y22006200D03*
D38*
X25700000Y25443700D03*
X25700000Y18568700D03*
X26100000Y25443700D03*
X26100000Y18568700D03*
X26500000Y25443700D03*
X26500000Y18568700D03*
X26900000Y25443700D03*
X26900000Y18568700D03*
D37*
X27737500Y24606200D03*
X27737500Y24206200D03*
X27737500Y23806200D03*
X27737500Y23406200D03*
X27737500Y23006200D03*
X27737500Y22606200D03*
X27737500Y22206200D03*
X27737500Y21806200D03*
X27737500Y21406200D03*
X27737500Y21006200D03*
X27737500Y20606200D03*
X27737500Y20206200D03*
X27737500Y19806200D03*
X27737500Y19406200D03*
D10*
X60592000Y25900000D03*
X61608000Y25900000D03*
D28*
X11925000Y5075000D03*
X11925000Y2925000D03*
X16075000Y5075000D03*
X16075000Y2925000D03*
D10*
X60592000Y27500000D03*
X61608000Y27500000D03*
X30292000Y47900000D03*
X31308000Y47900000D03*
D24*
X24275000Y49700000D03*
X24275000Y50200000D03*
X24275000Y50700000D03*
X22725000Y49700000D03*
X22725000Y50200000D03*
X22725000Y50700000D03*
D10*
X13692000Y7000000D03*
X14708000Y7000000D03*
D11*
X66899999Y18492000D03*
X66899999Y19508000D03*
D41*
X102108000Y59975000D03*
X101608000Y59975000D03*
X101108000Y59975000D03*
X102108000Y58425000D03*
X101608000Y58425000D03*
X101108000Y58425000D03*
D11*
X97300000Y19492000D03*
X97300000Y20508000D03*
D42*
X66800000Y46800000D03*
X66000000Y46800000D03*
X65200000Y46800000D03*
X64400000Y46800000D03*
X63600000Y46800000D03*
X62800000Y46800000D03*
X62000000Y46800000D03*
X61200000Y46800000D03*
X60400000Y46800000D03*
X59600000Y46800000D03*
X58800000Y46800000D03*
X58000000Y46800000D03*
X57200000Y46800000D03*
X56400000Y46800000D03*
X55600000Y46800000D03*
X54800000Y46800000D03*
X54000000Y46800000D03*
X53200000Y46800000D03*
X66800000Y46000000D03*
X66000000Y46000000D03*
X65200000Y46000000D03*
X64400000Y46000000D03*
X63600000Y46000000D03*
X62800000Y46000000D03*
X62000000Y46000000D03*
X61200000Y46000000D03*
X60400000Y46000000D03*
X59600000Y46000000D03*
X58800000Y46000000D03*
X58000000Y46000000D03*
X57200000Y46000000D03*
X56400000Y46000000D03*
X55600000Y46000000D03*
X54800000Y46000000D03*
X54000000Y46000000D03*
X53200000Y46000000D03*
X66800000Y45200000D03*
X66000000Y45200000D03*
X65200000Y45200000D03*
X64400000Y45200000D03*
X63600000Y45200000D03*
X62800000Y45200000D03*
X62000000Y45200000D03*
X61200000Y45200000D03*
X60400000Y45200000D03*
X59600000Y45200000D03*
X58800000Y45200000D03*
X58000000Y45200000D03*
X57200000Y45200000D03*
X56400000Y45200000D03*
X55600000Y45200000D03*
X54800000Y45200000D03*
X54000000Y45200000D03*
X53200000Y45200000D03*
X66800000Y44400000D03*
X66000000Y44400000D03*
X65200000Y44400000D03*
X64400000Y44400000D03*
X63600000Y44400000D03*
X62800000Y44400000D03*
X62000000Y44400000D03*
X61200000Y44400000D03*
X60400000Y44400000D03*
X59600000Y44400000D03*
X58800000Y44400000D03*
X58000000Y44400000D03*
X57200000Y44400000D03*
X56400000Y44400000D03*
X55600000Y44400000D03*
X54800000Y44400000D03*
X54000000Y44400000D03*
X53200000Y44400000D03*
X66800000Y43600000D03*
X66000000Y43600000D03*
X65200000Y43600000D03*
X64400000Y43600000D03*
X63600000Y43600000D03*
X62800000Y43600000D03*
X62000000Y43600000D03*
X61200000Y43600000D03*
X60400000Y43600000D03*
X59600000Y43600000D03*
X58800000Y43600000D03*
X58000000Y43600000D03*
X57200000Y43600000D03*
X56400000Y43600000D03*
X55600000Y43600000D03*
X54800000Y43600000D03*
X54000000Y43600000D03*
X53200000Y43600000D03*
X66800000Y42800000D03*
X66000000Y42800000D03*
X65200000Y42800000D03*
X64400000Y42800000D03*
X63600000Y42800000D03*
X62800000Y42800000D03*
X62000000Y42800000D03*
X61200000Y42800000D03*
X60400000Y42800000D03*
X59600000Y42800000D03*
X58800000Y42800000D03*
X58000000Y42800000D03*
X57200000Y42800000D03*
X56400000Y42800000D03*
X55600000Y42800000D03*
X54800000Y42800000D03*
X54000000Y42800000D03*
X53200000Y42800000D03*
X66800000Y42000000D03*
X66000000Y42000000D03*
X65200000Y42000000D03*
X64400000Y42000000D03*
X63600000Y42000000D03*
X62800000Y42000000D03*
X62000000Y42000000D03*
X61200000Y42000000D03*
X60400000Y42000000D03*
X59600000Y42000000D03*
X58800000Y42000000D03*
X58000000Y42000000D03*
X57200000Y42000000D03*
X56400000Y42000000D03*
X55600000Y42000000D03*
X54800000Y42000000D03*
X54000000Y42000000D03*
X53200000Y42000000D03*
X66800000Y41200000D03*
X66000000Y41200000D03*
X65200000Y41200000D03*
X64400000Y41200000D03*
X63600000Y41200000D03*
X62800000Y41200000D03*
X62000000Y41200000D03*
X61200000Y41200000D03*
X60400000Y41200000D03*
X59600000Y41200000D03*
X58800000Y41200000D03*
X58000000Y41200000D03*
X57200000Y41200000D03*
X56400000Y41200000D03*
X55600000Y41200000D03*
X54800000Y41200000D03*
X54000000Y41200000D03*
X53200000Y41200000D03*
X66800000Y40400000D03*
X66000000Y40400000D03*
X65200000Y40400000D03*
X64400000Y40400000D03*
X63600000Y40400000D03*
X62800000Y40400000D03*
X62000000Y40400000D03*
X61200000Y40400000D03*
X60400000Y40400000D03*
X59600000Y40400000D03*
X58800000Y40400000D03*
X58000000Y40400000D03*
X57200000Y40400000D03*
X56400000Y40400000D03*
X55600000Y40400000D03*
X54800000Y40400000D03*
X54000000Y40400000D03*
X53200000Y40400000D03*
X66800000Y39600000D03*
X66000000Y39600000D03*
X65200000Y39600000D03*
X64400000Y39600000D03*
X63600000Y39600000D03*
X62800000Y39600000D03*
X62000000Y39600000D03*
X61200000Y39600000D03*
X60400000Y39600000D03*
X59600000Y39600000D03*
X58800000Y39600000D03*
X58000000Y39600000D03*
X57200000Y39600000D03*
X56400000Y39600000D03*
X55600000Y39600000D03*
X54800000Y39600000D03*
X54000000Y39600000D03*
X53200000Y39600000D03*
X66800000Y38800000D03*
X66000000Y38800000D03*
X65200000Y38800000D03*
X64400000Y38800000D03*
X63600000Y38800000D03*
X62800000Y38800000D03*
X62000000Y38800000D03*
X61200000Y38800000D03*
X60400000Y38800000D03*
X59600000Y38800000D03*
X58800000Y38800000D03*
X58000000Y38800000D03*
X57200000Y38800000D03*
X56400000Y38800000D03*
X55600000Y38800000D03*
X54800000Y38800000D03*
X54000000Y38800000D03*
X53200000Y38800000D03*
X66800000Y38000000D03*
X66000000Y38000000D03*
X65200000Y38000000D03*
X64400000Y38000000D03*
X63600000Y38000000D03*
X62800000Y38000000D03*
X62000000Y38000000D03*
X61200000Y38000000D03*
X60400000Y38000000D03*
X59600000Y38000000D03*
X58800000Y38000000D03*
X58000000Y38000000D03*
X57200000Y38000000D03*
X56400000Y38000000D03*
X55600000Y38000000D03*
X54800000Y38000000D03*
X54000000Y38000000D03*
X53200000Y38000000D03*
X66800000Y37200000D03*
X66000000Y37200000D03*
X65200000Y37200000D03*
X64400000Y37200000D03*
X63600000Y37200000D03*
X62800000Y37200000D03*
X62000000Y37200000D03*
X61200000Y37200000D03*
X60400000Y37200000D03*
X59600000Y37200000D03*
X58800000Y37200000D03*
X58000000Y37200000D03*
X57200000Y37200000D03*
X56400000Y37200000D03*
X55600000Y37200000D03*
X54800000Y37200000D03*
X54000000Y37200000D03*
X53200000Y37200000D03*
X66800000Y36400000D03*
X66000000Y36400000D03*
X65200000Y36400000D03*
X64400000Y36400000D03*
X63600000Y36400000D03*
X62800000Y36400000D03*
X62000000Y36400000D03*
X61200000Y36400000D03*
X60400000Y36400000D03*
X59600000Y36400000D03*
X58800000Y36400000D03*
X58000000Y36400000D03*
X57200000Y36400000D03*
X56400000Y36400000D03*
X55600000Y36400000D03*
X54800000Y36400000D03*
X54000000Y36400000D03*
X53200000Y36400000D03*
X66800000Y35600000D03*
X66000000Y35600000D03*
X65200000Y35600000D03*
X64400000Y35600000D03*
X63600000Y35600000D03*
X62800000Y35600000D03*
X62000000Y35600000D03*
X61200000Y35600000D03*
X60400000Y35600000D03*
X59600000Y35600000D03*
X58800000Y35600000D03*
X58000000Y35600000D03*
X57200000Y35600000D03*
X56400000Y35600000D03*
X55600000Y35600000D03*
X54800000Y35600000D03*
X54000000Y35600000D03*
X53200000Y35600000D03*
X66800000Y34800000D03*
X66000000Y34800000D03*
X65200000Y34800000D03*
X64400000Y34800000D03*
X63600000Y34800000D03*
X62800000Y34800000D03*
X62000000Y34800000D03*
X61200000Y34800000D03*
X60400000Y34800000D03*
X59600000Y34800000D03*
X58800000Y34800000D03*
X58000000Y34800000D03*
X57200000Y34800000D03*
X56400000Y34800000D03*
X55600000Y34800000D03*
X54800000Y34800000D03*
X54000000Y34800000D03*
X53200000Y34800000D03*
X66800000Y34000000D03*
X66000000Y34000000D03*
X65200000Y34000000D03*
X64400000Y34000000D03*
X63600000Y34000000D03*
X62800000Y34000000D03*
X62000000Y34000000D03*
X61200000Y34000000D03*
X60400000Y34000000D03*
X59600000Y34000000D03*
X58800000Y34000000D03*
X58000000Y34000000D03*
X57200000Y34000000D03*
X56400000Y34000000D03*
X55600000Y34000000D03*
X54800000Y34000000D03*
X54000000Y34000000D03*
X53200000Y34000000D03*
X66800000Y33200000D03*
X66000000Y33200000D03*
X65200000Y33200000D03*
X64400000Y33200000D03*
X63600000Y33200000D03*
X62800000Y33200000D03*
X62000000Y33200000D03*
X61200000Y33200000D03*
X60400000Y33200000D03*
X59600000Y33200000D03*
X58800000Y33200000D03*
X58000000Y33200000D03*
X57200000Y33200000D03*
X56400000Y33200000D03*
X55600000Y33200000D03*
X54800000Y33200000D03*
X54000000Y33200000D03*
X53200000Y33200000D03*
D11*
X11200000Y12692000D03*
X11200000Y13708000D03*
D10*
X12308001Y65000000D03*
X11292001Y65000000D03*
D21*
X49570000Y77125000D03*
X49570000Y70875000D03*
X52110000Y77125000D03*
X52110000Y70875000D03*
X54650000Y77125000D03*
X54650000Y70875000D03*
X57190000Y77125000D03*
X57190000Y70875000D03*
X59730000Y77125000D03*
X59730000Y70875000D03*
X62270000Y77125000D03*
X62270000Y70875000D03*
X64810000Y77125000D03*
X64810000Y70875000D03*
X67350000Y77125000D03*
X67350000Y70875000D03*
X69890000Y77125000D03*
X69890000Y70875000D03*
X72430000Y77125000D03*
X72430000Y70875000D03*
D11*
X26400000Y48108000D03*
X26400000Y47092000D03*
D43*
X88425000Y23400000D03*
X87775000Y23400000D03*
X87125000Y23400000D03*
X86475000Y23400000D03*
X85825000Y23400000D03*
X85175000Y23400000D03*
X84525000Y23400000D03*
X83875000Y23400000D03*
X83225000Y23400000D03*
X82575000Y23400000D03*
X82575000Y17600000D03*
X83225000Y17600000D03*
X83875000Y17600000D03*
X84525000Y17600000D03*
X85175000Y17600000D03*
X85825000Y17600000D03*
X86475000Y17600000D03*
X87125000Y17600000D03*
X87775000Y17600000D03*
X88425000Y17600000D03*
D29*
X40238000Y12000000D03*
X41762000Y12000000D03*
D11*
X20400000Y48108000D03*
X20400000Y47092000D03*
D33*
X58770000Y13000000D03*
X56230000Y13000000D03*
D11*
X64800000Y28892000D03*
X64800000Y29908000D03*
D24*
X78375000Y16600000D03*
X78375000Y17100000D03*
X78375000Y17600000D03*
X76825000Y16600000D03*
X76825000Y17100000D03*
X76825000Y17600000D03*
D11*
X67600000Y24192000D03*
X67600000Y25208000D03*
D10*
X12308000Y66400000D03*
X11292000Y66400000D03*
D11*
X48900000Y40992000D03*
X48900000Y42008000D03*
D10*
X22492000Y7000000D03*
X23508000Y7000000D03*
D44*
X35600000Y24300000D03*
X37200000Y22100000D03*
X37200000Y24300000D03*
X35600000Y22100000D03*
D10*
X33908000Y20400000D03*
X32892000Y20400000D03*
X30108000Y39300000D03*
X29092000Y39300000D03*
D33*
X73540000Y13000000D03*
X71000000Y13000000D03*
X68460000Y13000000D03*
D11*
X11200000Y19308000D03*
X11200000Y18292000D03*
D28*
X16507440Y30450040D03*
X16507440Y32352500D03*
X14297640Y31397460D03*
D29*
X31238000Y12000000D03*
X32762000Y12000000D03*
D11*
X71100000Y25292000D03*
X71100000Y26308000D03*
D10*
X103592000Y55800000D03*
X104608000Y55800000D03*
X61508000Y53300000D03*
X60492000Y53300000D03*
X15908000Y25200000D03*
X14892000Y25200000D03*
X38508000Y12000000D03*
X37492000Y12000000D03*
D25*
X104608000Y58311000D03*
X104608000Y60089000D03*
D10*
X41908000Y47900000D03*
X40892000Y47900000D03*
X11292000Y52400000D03*
X12308000Y52400000D03*
D27*
X25000000Y55416000D03*
X25000000Y53384000D03*
D10*
X11292000Y60800000D03*
X12308000Y60800000D03*
D12*
X51413000Y65540000D03*
X46587000Y65540000D03*
X51413000Y63000000D03*
X46587000Y63000000D03*
X51413000Y60460000D03*
X46587000Y60460000D03*
D11*
X80150000Y14108000D03*
X80150000Y13092000D03*
D10*
X101116000Y61900000D03*
X100100000Y61900000D03*
X15908000Y40400000D03*
X14892000Y40400000D03*
X33908000Y26000000D03*
X32892000Y26000000D03*
D11*
X107250000Y18992000D03*
X107250000Y20008000D03*
D28*
X16507440Y37050040D03*
X16507440Y38952500D03*
X14297640Y37997460D03*
D10*
X42192000Y52200000D03*
X43208000Y52200000D03*
X32892000Y23200000D03*
X33908000Y23200000D03*
X12308000Y49600000D03*
X11292000Y49600000D03*
X11292000Y46800000D03*
X12308000Y46800000D03*
X18292000Y8500000D03*
X19308000Y8500000D03*
X15908000Y19600000D03*
X14892000Y19600000D03*
D11*
X20400000Y33480000D03*
X20400000Y32464000D03*
D10*
X73408000Y34500000D03*
X72392000Y34500000D03*
X32492000Y7000000D03*
X33508000Y7000000D03*
D11*
X67600000Y26092000D03*
X67600000Y27108000D03*
D10*
X14892000Y22400000D03*
X15908000Y22400000D03*
D11*
X27800000Y29092000D03*
X27800000Y30108000D03*
D10*
X30492000Y7000000D03*
X31508000Y7000000D03*
D45*
X95800000Y36799999D03*
X97700000Y36799999D03*
X96750000Y38999999D03*
D28*
X20925000Y5075000D03*
X20925000Y2925000D03*
X25075000Y5075000D03*
X25075000Y2925000D03*
D25*
X22611000Y32700000D03*
X24389000Y32700000D03*
D11*
X8000000Y2758000D03*
X8000000Y1742000D03*
D10*
X15908000Y26600000D03*
X14892000Y26600000D03*
X15908000Y18200000D03*
X14892000Y18200000D03*
D24*
X24275000Y35000000D03*
X24275000Y35500000D03*
X24275000Y36000000D03*
X22725000Y35000000D03*
X22725000Y35500000D03*
X22725000Y36000000D03*
D29*
X8000000Y4738000D03*
X8000000Y6262000D03*
D10*
X33908000Y27393800D03*
X32892000Y27393800D03*
D11*
X21600000Y29098200D03*
X21600000Y30114200D03*
X18000000Y30892000D03*
X18000000Y31908000D03*
D10*
X11292000Y56600000D03*
X12308000Y56600000D03*
X30292000Y54900000D03*
X31308000Y54900000D03*
D34*
X69700000Y24584000D03*
X69700000Y26616000D03*
D13*
X75400000Y19900000D03*
X75400000Y22300000D03*
D10*
X71008000Y29800000D03*
X69992000Y29800000D03*
D27*
X25000000Y40816000D03*
X25000000Y38784000D03*
D43*
X105925000Y23400000D03*
X105275000Y23400000D03*
X104625000Y23400000D03*
X103975000Y23400000D03*
X103325000Y23400000D03*
X102675000Y23400000D03*
X102025000Y23400000D03*
X101375000Y23400000D03*
X100725000Y23400000D03*
X100075000Y23400000D03*
X100075000Y17600000D03*
X100725000Y17600000D03*
X101375000Y17600000D03*
X102025000Y17600000D03*
X102675000Y17600000D03*
X103325000Y17600000D03*
X103975000Y17600000D03*
X104625000Y17600000D03*
X105275000Y17600000D03*
X105925000Y17600000D03*
D11*
X89750000Y22508000D03*
X89750000Y21492000D03*
X47300000Y40992000D03*
X47300000Y42008000D03*
D46*
X98300000Y57000000D03*
X95900000Y57000000D03*
D10*
X73408000Y33500000D03*
X72392000Y33500000D03*
X13692000Y8500000D03*
X14708000Y8500000D03*
X42192000Y45200000D03*
X43208000Y45200000D03*
X42508000Y38400000D03*
X41492000Y38400000D03*
D11*
X26400000Y33480000D03*
X26400000Y32464000D03*
D47*
X62330000Y17730000D03*
X64870000Y17730000D03*
X64870000Y20270000D03*
X62330000Y20270000D03*
D11*
X26000000Y29098200D03*
X26000000Y30114200D03*
X73100000Y39008000D03*
X73100000Y37992000D03*
D12*
X85913000Y65540000D03*
X81087000Y65540000D03*
X85913000Y63000000D03*
X81087000Y63000000D03*
X85913000Y60460000D03*
X81087000Y60460000D03*
D10*
X101408000Y55800000D03*
X100392000Y55800000D03*
D11*
X72400000Y19508000D03*
X72400000Y18492000D03*
D45*
X92100000Y36800000D03*
X94000000Y36800000D03*
X93050000Y39000000D03*
D29*
X40238000Y10000000D03*
X41762000Y10000000D03*
M02*
