M48
; DRILL file {KiCad 7.0.11-7.0.11~ubuntu22.04.1} date 11.03.2024 (пн) 16:24:21
; FORMAT={-:-/ absolute / metric / decimal}
; #@! TF.CreationDate,2024-03-11T16:24:21+02:00
; #@! TF.GenerationSoftware,Kicad,Pcbnew,7.0.11-7.0.11~ubuntu22.04.1
; #@! TF.FileFunction,Plated,1,4,PTH
FMAT,2
METRIC
; #@! TA.AperFunction,Plated,PTH,ViaDrill
T1C0.300
; #@! TA.AperFunction,Plated,PTH,ViaDrill
T2C0.600
; #@! TA.AperFunction,Plated,PTH,ComponentDrill
T3C0.600
; #@! TA.AperFunction,Plated,PTH,ComponentDrill
T4C0.800
; #@! TA.AperFunction,Plated,PTH,ComponentDrill
T5C0.900
; #@! TA.AperFunction,Plated,PTH,ComponentDrill
T6C1.000
; #@! TA.AperFunction,Plated,PTH,ComponentDrill
T7C1.200
; #@! TA.AperFunction,Plated,PTH,ComponentDrill
T8C1.300
; #@! TA.AperFunction,Plated,PTH,ComponentDrill
T9C2.500
%
G90
G05
T1
X6.5Y16.75
X6.5Y15.75
X14.0Y15.3
X14.4Y26.6
X14.4Y25.9
X14.4Y25.2
X14.4Y24.5
X14.4Y23.8
X14.4Y19.6
X14.4Y18.9
X14.4Y18.2
X14.4Y17.5
X14.4Y16.8
X15.9Y27.2
X15.9Y20.2
X15.95Y26.05
X15.95Y19.05
X16.2Y17.8
X16.4Y16.7
X16.45Y19.55
X16.5Y26.6
X16.5Y18.45
X16.5Y12.7
X16.6Y20.2
X16.9Y17.2
X17.0Y27.2
X17.0Y11.4
X17.5Y9.2
X17.5Y8.5
X18.3Y9.2
X18.6Y12.7
X18.6Y11.4
X19.8Y50.3
X19.8Y36.723
X19.8Y35.7
X20.0Y15.6
X20.4Y37.2
X20.5Y15.1
X20.8Y17.9
X20.8Y17.2
X20.9Y29.1
X20.9Y28.4
X20.9Y27.6
X21.0Y30.1
X21.0Y16.6
X21.0Y15.6
X21.0Y14.6
X21.5Y17.9
X21.5Y17.2
X21.5Y15.1
X21.5Y14.1
X21.6Y30.6
X21.6Y28.4
X21.6Y27.6
X22.1Y26.9
X22.2Y30.1
X22.5Y27.5
X22.6Y51.1
X22.6Y36.5
X22.9Y28.0
X23.227Y28.509
X23.489Y48.5
X23.489Y47.8
X23.489Y47.1
X23.5Y51.4
X23.5Y50.7
X23.5Y50.0
X23.5Y37.4
X23.5Y36.7
X23.5Y36.0
X23.5Y35.3
X23.5Y8.3
X23.6Y33.5
X23.6Y32.7
X23.6Y31.9
X23.6Y29.6
X24.058Y28.469
X24.1Y30.2
X24.2Y52.1
X24.2Y51.4
X24.2Y49.3
X24.2Y48.0
X24.2Y34.6
X24.25Y37.4
X24.25Y36.7
X24.3Y33.5
X24.7Y29.2
X24.9Y52.1
X24.9Y51.4
X24.9Y48.7
X24.9Y48.0
X25.0Y37.4
X25.0Y36.7
X25.0Y34.2
X25.0Y33.5
X25.4Y30.1
X25.4Y29.1
X25.5Y52.5
X25.5Y37.9
X25.6Y48.8
X25.6Y48.1
X25.7Y34.2
X25.7Y33.5
X25.7Y31.9
X25.7Y17.3
X25.7Y16.6
X25.7Y15.6
X25.8Y51.3
X25.8Y36.7
X26.0Y30.6
X26.0Y28.6
X26.0Y26.4
X26.2Y15.1
X26.4Y51.8
X26.4Y37.2
X26.4Y31.9
X26.6Y30.1
X26.6Y29.1
X26.7Y16.6
X26.7Y15.6
X27.0Y51.3
X27.0Y36.7
X27.1Y31.9
X27.5Y34.4
X27.8Y26.5
X28.651Y38.687
X28.7Y50.8
X29.3Y38.687
X32.1Y46.635
X32.4Y21.8
X32.9Y25.3
X32.9Y22.3
X32.9Y21.3
X33.49Y14.5
X33.9Y26.455
X33.9Y25.2
X33.9Y22.5
X33.9Y21.1
X35.2Y21.1
X35.2Y20.4
X35.2Y10.3
X35.7Y9.2
X35.9Y21.1
X36.4Y23.2
X36.7Y47.9
X36.7Y54.9
X36.7Y51.7
X36.9Y25.3
X37.2Y53.6
X37.2Y50.0
X37.3Y19.5
X37.5Y26.0
X37.5Y8.3
X37.6Y25.3
X37.8Y20.0
X38.156Y26.656
X38.2Y26.0
X38.2Y20.6
X39.0Y32.4
X39.4Y26.0
X39.4Y24.4
X39.4Y13.8
X39.423Y26.715
X39.8Y32.4
X40.1Y25.4
X40.5Y32.4
X40.5Y31.465
X40.5Y30.7
X40.5Y29.9
X40.7Y24.9
X40.8Y46.2
X41.4Y26.5
X41.4Y25.8
X41.8Y43.4
X42.5Y43.4
X42.762Y41.532
X42.9Y40.224
X43.0Y38.4
X43.1Y35.9
X43.1Y34.7
X43.6Y30.719
X43.6Y29.2
X43.6Y28.2
X43.6Y12.0
X43.6Y40.337
X43.7Y38.4
X43.8Y52.2
X43.8Y48.7
X43.8Y45.2
X44.1Y31.5
X44.1Y28.6
X44.2Y36.9
X44.2Y35.0
X44.717Y44.1
X44.787Y37.787
X44.8Y43.5
X44.8Y33.5
X44.8Y31.5
X44.85Y36.916
X44.85Y35.0
X45.1Y42.4
X45.157Y16.3
X45.2Y29.6
X45.25Y43.05
X45.6Y36.1
X45.7Y42.3
X45.9Y41.7
X46.0Y29.6
X46.0Y28.9
X46.3Y41.2
X46.4Y16.7
X46.556Y40.622
X46.7Y28.9
X46.8Y17.2
X47.1Y29.6
X47.5Y28.9
X47.8Y57.8
X47.9Y17.2
X48.095Y11.9
X48.3Y17.9
X48.7Y18.4
X48.7Y15.7
X49.1Y18.9
X49.365Y11.9
X49.6Y15.7
X49.7Y29.5
X49.8Y28.9
X49.8Y19.6
X49.8Y18.9
X50.2Y20.1
X50.4Y15.7
X50.517Y43.507
X50.528Y44.332
X50.6Y20.6
X50.635Y11.9
X50.8Y36.0
X50.8Y35.0
X50.9Y42.9
X50.977Y43.922
X51.0Y47.607
X51.0Y28.9
X51.0Y21.1
X51.1Y50.3
X51.1Y40.8
X51.3Y49.4
X51.3Y15.7
X51.4Y28.4
X51.4Y21.6
X51.465Y38.0
X51.5Y52.0
X51.5Y36.0
X51.6Y46.3
X51.8Y47.6
X51.8Y22.1
X51.9Y40.8
X51.905Y11.9
X52.0Y43.2
X52.1Y51.6
X52.1Y45.688
X52.1Y34.8
X52.1Y33.2
X52.125Y38.0
X52.2Y36.0
X52.3Y22.5
X52.4Y44.8
X52.5Y52.4
X52.8Y43.2
X52.8Y40.8
X52.8Y38.0
X52.8Y34.8
X52.8Y33.2
X52.83Y45.599
X52.864Y47.136
X52.9Y51.6
X52.9Y22.9
X53.2Y32.7
X53.2Y28.2
X53.2Y27.5
X53.3Y23.4
X53.6Y45.6
X53.6Y43.2
X53.6Y40.8
X54.0Y47.2
X54.0Y27.5
X54.4Y44.8
X54.4Y44.0
X54.4Y43.2
X54.4Y42.4
X54.4Y41.6
X54.4Y40.8
X54.4Y39.2
X54.4Y38.4
X54.4Y37.6
X54.4Y36.8
X54.4Y36.0
X54.4Y32.8
X54.4Y32.1
X55.1Y52.9
X55.2Y45.6
X55.2Y44.8
X55.2Y44.0
X55.2Y43.2
X55.2Y42.4
X55.2Y41.6
X55.2Y40.8
X55.2Y40.0
X55.2Y39.2
X55.2Y38.4
X55.2Y36.8
X55.2Y36.0
X55.2Y35.2
X55.2Y34.4
X55.6Y52.3
X55.6Y16.7
X56.0Y45.6
X56.0Y44.8
X56.0Y44.0
X56.0Y43.2
X56.0Y42.4
X56.0Y41.6
X56.0Y40.8
X56.0Y40.0
X56.0Y39.2
X56.0Y38.4
X56.0Y37.6
X56.0Y36.8
X56.0Y36.0
X56.0Y35.2
X56.0Y34.4
X56.2Y17.3
X56.25Y10.9
X56.4Y47.2
X56.483Y26.888
X56.8Y44.8
X56.8Y44.0
X56.8Y43.2
X56.8Y42.4
X56.8Y41.6
X56.8Y40.8
X56.8Y40.0
X56.8Y39.2
X56.8Y38.4
X56.8Y37.6
X56.8Y36.0
X56.8Y35.2
X57.05Y51.05
X57.088Y26.888
X57.2Y32.8
X57.2Y32.1
X57.6Y45.6
X57.6Y44.8
X57.6Y44.0
X57.6Y43.2
X57.6Y41.6
X57.6Y40.8
X57.6Y40.0
X57.6Y39.2
X57.6Y38.4
X57.6Y37.6
X57.6Y36.8
X57.6Y36.0
X57.6Y35.2
X57.6Y34.4
X57.7Y50.8
X57.964Y49.184
X58.0Y48.0
X58.0Y47.2
X58.3Y28.8
X58.4Y44.8
X58.4Y46.4
X58.4Y45.6
X58.4Y43.2
X58.4Y41.6
X58.4Y40.8
X58.4Y40.0
X58.4Y39.2
X58.4Y38.4
X58.4Y37.6
X58.4Y36.8
X58.4Y36.0
X58.4Y35.2
X58.4Y34.4
X58.6Y49.2
X58.8Y28.2
X59.2Y45.6
X59.2Y44.8
X59.2Y44.0
X59.2Y43.2
X59.2Y41.6
X59.2Y40.8
X59.2Y40.0
X59.2Y39.2
X59.2Y38.4
X59.2Y37.6
X59.2Y36.8
X59.2Y36.0
X59.2Y35.2
X59.2Y34.4
X59.2Y33.6
X59.2Y32.5
X59.2Y31.8
X59.3Y28.8
X59.7Y18.5
X59.7Y17.7
X59.823Y28.412
X60.0Y45.6
X60.0Y44.8
X60.0Y44.0
X60.0Y43.2
X60.0Y42.4
X60.0Y41.6
X60.0Y40.8
X60.0Y40.0
X60.0Y39.2
X60.0Y38.4
X60.0Y37.6
X60.0Y36.8
X60.0Y36.0
X60.0Y35.2
X60.0Y34.4
X60.3Y18.0
X60.456Y50.156
X60.523Y28.412
X60.562Y49.462
X60.8Y48.0
X60.8Y47.2
X60.8Y46.4
X60.8Y45.6
X60.8Y44.8
X60.8Y43.2
X60.8Y42.4
X60.8Y41.6
X60.8Y40.8
X60.8Y40.0
X60.8Y39.2
X60.8Y38.4
X60.8Y37.6
X60.8Y36.8
X60.8Y36.0
X60.8Y35.2
X60.8Y34.4
X60.9Y18.5
X60.9Y17.7
X61.6Y45.6
X61.6Y44.8
X61.6Y43.2
X61.6Y42.4
X61.6Y41.6
X61.6Y40.8
X61.6Y40.0
X61.6Y39.2
X61.6Y38.4
X61.6Y37.6
X61.6Y36.0
X61.6Y35.2
X62.0Y52.9
X62.0Y51.4
X62.4Y45.6
X62.4Y44.8
X62.4Y44.0
X62.4Y43.2
X62.4Y42.4
X62.4Y41.6
X62.4Y40.8
X62.4Y40.0
X62.4Y39.2
X62.4Y38.4
X62.4Y37.6
X62.4Y36.8
X62.4Y36.0
X62.4Y35.2
X62.4Y34.4
X62.4Y33.6
X62.5Y51.0
X62.5Y50.3
X62.6Y31.7
X62.7Y52.9
X63.2Y48.0
X63.2Y47.2
X63.2Y46.4
X63.2Y45.6
X63.2Y44.8
X63.2Y43.2
X63.2Y42.4
X63.2Y41.6
X63.2Y40.8
X63.2Y40.0
X63.2Y39.2
X63.2Y38.4
X63.2Y36.8
X63.2Y36.0
X63.2Y35.2
X63.2Y34.4
X63.644Y50.856
X63.65Y49.3
X63.9Y29.5
X63.9Y25.5
X63.9Y24.8
X63.908Y28.2
X63.908Y26.9
X64.0Y45.6
X64.0Y44.8
X64.0Y44.0
X64.0Y43.2
X64.0Y42.4
X64.0Y41.6
X64.0Y40.8
X64.0Y40.0
X64.0Y39.2
X64.0Y38.4
X64.0Y37.6
X64.0Y36.8
X64.0Y36.0
X64.0Y35.2
X64.0Y34.4
X64.0Y33.6
X64.0Y32.7
X64.0Y31.9
X64.1Y16.9
X64.3Y49.3
X64.8Y45.6
X64.8Y44.8
X64.8Y44.0
X64.8Y43.2
X64.8Y42.4
X64.8Y41.6
X64.8Y40.8
X64.8Y40.0
X64.8Y39.2
X64.8Y38.4
X64.8Y37.6
X64.8Y36.0
X64.8Y35.2
X64.8Y26.5
X64.85Y16.9
X65.6Y47.2
X65.6Y46.4
X65.6Y45.6
X65.6Y44.8
X65.6Y43.2
X65.6Y42.4
X65.6Y41.6
X65.6Y40.8
X65.6Y40.0
X65.6Y39.2
X65.6Y38.4
X65.6Y37.6
X65.6Y36.0
X65.6Y34.4
X65.6Y16.9
X66.0Y32.7
X66.0Y31.9
X66.0Y8.7
X66.3Y48.9
X66.4Y44.0
X66.4Y41.6
X66.4Y39.2
X66.4Y34.4
X66.7Y8.5
X66.8Y47.2
X66.8Y32.7
X66.8Y31.9
X66.8Y31.0
X66.8Y30.3
X66.8Y29.6
X66.8Y28.7
X67.0Y49.7
X67.0Y48.9
X67.2Y39.2
X67.2Y46.4
X67.4Y44.0
X67.5Y50.2
X67.577Y21.564
X67.6Y41.6
X68.0Y44.6
X68.0Y39.2
X68.234Y16.849
X68.266Y35.766
X68.3Y17.5
X68.4Y41.6
X68.5Y18.8
X68.8Y47.9
X68.8Y47.2
X68.965Y35.068
X69.0Y19.508
X69.197Y33.9
X69.2Y41.6
X69.6Y20.1
X69.7Y13.6
X69.8Y21.5
X69.844Y22.244
X70.1Y43.1
X70.2Y19.5
X70.3Y47.9
X70.3Y47.2
X70.671Y27.229
X71.1Y42.9
X71.1Y26.8
X71.15Y43.55
X71.5Y22.2
X71.608Y30.8
X71.608Y29.8
X71.8Y33.492
X71.8Y42.9
X71.8Y32.6
X71.8Y19.5
X72.2Y22.2
X72.3Y36.55
X72.3Y13.6
X72.4Y33.0
X72.4Y32.3
X72.4Y20.1
X72.5Y41.9
X72.7Y30.8
X72.7Y29.8
X72.943Y28.3
X73.0Y19.5
X73.2Y41.9
X73.4Y15.7
X76.6Y18.0
X76.95Y16.2
X77.6Y18.3
X77.6Y17.65
X77.6Y17.0
X77.6Y15.4
X77.6Y13.6
X77.7Y34.5
X77.7Y33.5
X78.3Y35.0
X78.3Y33.0
X78.3Y16.2
X78.3Y15.4
X78.9Y34.5
X78.9Y33.5
X79.2Y13.6
X79.5Y8.5
X80.15Y20.6
X80.15Y19.95
X80.8Y19.95
X82.575Y16.625
X82.575Y15.7
X83.0Y26.2
X83.8Y26.2
X84.5Y30.9
X84.5Y26.2
X85.2Y30.5
X85.2Y26.2
X85.7Y14.1
X85.825Y25.9
X86.475Y25.9
X86.8Y14.1
X87.125Y25.3
X87.2Y26.0
X87.775Y24.45
X87.8Y34.1
X87.8Y22.2
X87.8Y21.5
X87.8Y20.0
X88.5Y22.2
X89.1Y22.5
X89.1Y21.5
X89.1Y20.0
X89.75Y20.75
X91.3Y36.8
X91.4Y18.1
X94.0Y20.6
X94.9Y20.6
X94.9Y19.9
X94.9Y19.2
X94.9Y18.0
X94.9Y17.3
X95.0Y36.8
X95.6Y18.6
X95.75Y20.6
X96.35Y21.05
X96.8Y11.1
X96.9Y11.8
X98.7Y36.15
X99.0Y60.8
X99.0Y60.0
X99.4Y32.2
X99.7Y60.8
X99.7Y60.0
X99.7Y59.2
X99.75Y36.15
X99.9Y31.8
X100.075Y24.5
X100.3Y22.2
X100.4Y60.8
X100.4Y60.0
X100.4Y59.2
X100.6Y36.15
X100.7Y32.6
X100.7Y24.9
X101.1Y59.2
X101.3Y32.2
X101.4Y24.5
X101.8Y59.2
X101.8Y31.5
X101.9Y34.1
X102.025Y24.9
X102.4Y31.1
X102.5Y60.8
X102.5Y59.9
X102.6Y55.8
X102.7Y24.5
X103.1Y31.1
X103.2Y60.8
X103.2Y60.1
X103.2Y59.2
X103.3Y24.9
X103.8Y31.1
X103.9Y60.8
X103.9Y60.1
X103.9Y59.2
X104.0Y24.5
X104.6Y60.8
X104.6Y24.9
X104.608Y59.2
X105.275Y24.5
X105.3Y60.8
X105.3Y59.2
X105.3Y22.2
X105.7Y55.4
X105.8Y20.5
X105.9Y24.9
X106.0Y60.8
X106.0Y22.2
X106.2Y59.2
X106.2Y54.1
X106.3Y20.0
X106.4Y55.4
X106.5Y29.5
X106.7Y22.2
X107.0Y60.8
X107.5Y55.4
X107.9Y51.3
X107.9Y50.6
X109.0Y54.4
X110.0Y54.4
X111.0Y54.4
X111.1Y11.5
X113.8Y55.9
X114.0Y39.492
X114.0Y38.888
X114.0Y34.412
X114.0Y33.808
X114.0Y29.332
X114.0Y28.728
X114.4Y55.5
X114.4Y53.2
X114.4Y50.6
X114.4Y48.1
X114.4Y45.5
X114.4Y43.0
T2
X1.0Y31.4
X1.0Y29.4
X1.0Y27.4
X1.0Y25.4
X1.0Y23.4
X1.0Y21.4
X1.0Y19.4
X1.0Y17.4
X1.0Y15.4
X1.0Y13.2
X1.0Y11.0
X1.0Y9.0
X1.0Y7.0
X1.016Y71.4
X1.016Y69.4
X1.016Y67.4
X1.016Y65.4
X1.016Y63.4
X1.016Y61.4
X1.016Y59.4
X1.016Y57.4
X1.016Y55.4
X1.016Y53.4
X1.016Y51.4
X1.016Y49.4
X1.016Y47.4
X1.016Y45.4
X1.016Y43.4
X1.016Y41.4
X1.016Y39.4
X1.016Y37.4
X1.016Y35.4
X1.016Y33.4
X2.3Y22.5
X3.0Y71.9
X3.0Y17.4
X3.0Y15.4
X3.0Y13.2
X3.4Y22.5
X4.5Y22.5
X4.5Y21.4
X4.5Y20.3
X4.5Y19.2
X4.5Y12.8
X4.5Y11.7
X4.5Y10.6
X5.6Y22.5
X6.2Y72.2
X6.7Y22.5
X6.924Y6.924
X7.0Y78.8
X7.0Y1.051
X7.2Y73.2
X8.1Y77.8
X8.1Y76.0
X8.1Y74.2
X8.135Y1.051
X8.8Y18.2
X8.8Y13.3
X9.0Y78.8
X9.8Y63.6
X9.8Y62.2
X9.8Y60.8
X9.8Y59.4
X9.9Y21.5
X9.9Y20.4
X9.9Y19.3
X9.9Y18.2
X9.9Y13.3
X9.9Y12.2
X9.9Y11.1
X9.9Y10.0
X10.2Y1.051
X11.0Y78.8
X12.2Y34.7
X12.2Y33.6
X12.2Y1.051
X12.3Y67.2
X12.3Y41.2
X12.3Y39.6
X13.0Y78.8
X13.1Y66.4
X13.1Y65.0
X13.1Y58.0
X13.1Y53.8
X13.1Y49.6
X13.1Y40.4
X14.2Y1.051
X14.4Y78.8
X14.4Y77.7
X14.4Y76.6
X14.4Y75.5
X14.4Y73.457
X14.4Y72.4
X14.4Y71.3
X14.4Y70.2
X14.4Y69.1
X14.4Y68.0
X15.55Y68.0
X15.557Y73.457
X15.8Y11.3
X15.8Y10.1
X15.8Y8.7
X16.0Y65.55
X16.0Y64.5
X16.0Y63.4
X16.2Y1.051
X16.7Y25.2
X16.7Y23.806
X16.8Y78.8
X16.8Y77.7
X16.8Y76.6
X16.8Y75.5
X16.9Y35.5
X16.9Y28.9
X17.1Y65.55
X17.1Y64.5
X17.1Y63.4
X17.25Y22.85
X17.8Y25.2
X17.8Y23.806
X18.0Y36.6
X18.0Y35.5
X18.0Y30.0
X18.0Y28.9
X18.2Y65.55
X18.2Y64.5
X18.2Y42.3
X18.2Y41.2
X18.2Y40.1
X18.2Y1.051
X18.3Y15.0
X18.3Y13.9
X18.5Y52.4
X18.5Y51.323
X18.5Y50.2
X19.3Y42.3
X19.3Y41.2
X19.3Y40.1
X19.4Y78.8
X19.4Y15.0
X19.577Y51.323
X20.2Y1.051
X20.4Y65.55
X20.4Y64.5
X20.4Y63.0
X20.4Y61.9
X20.4Y60.45
X20.4Y59.4
X20.4Y56.9
X20.4Y42.3
X21.5Y64.5
X21.5Y61.9
X21.5Y59.4
X21.5Y56.9
X21.5Y49.3
X21.5Y48.3
X21.5Y47.3
X21.5Y42.3
X21.5Y34.6
X21.5Y32.6
X21.5Y31.6
X21.501Y33.6
X21.9Y78.8
X22.1Y24.265
X22.1Y23.2
X22.1Y22.0
X22.1Y20.9
X22.1Y19.8
X22.2Y1.051
X22.5Y31.6
X22.6Y64.5
X22.6Y61.9
X22.6Y59.4
X22.6Y56.9
X22.6Y42.3
X23.2Y24.265
X23.2Y19.8
X23.7Y64.5
X23.7Y61.9
X23.7Y59.4
X23.7Y56.9
X23.7Y55.4
X23.7Y54.0
X23.7Y52.8
X23.7Y42.3
X23.7Y40.8
X23.7Y39.4
X23.7Y38.2
X24.2Y1.051
X24.3Y24.265
X24.3Y19.8
X24.4Y78.8
X24.4Y31.6
X24.75Y65.55
X24.75Y64.5
X24.8Y63.0
X24.8Y61.9
X24.8Y60.45
X24.8Y59.4
X25.0Y56.9
X25.0Y42.3
X25.4Y24.265
X25.4Y19.8
X25.5Y47.3
X25.5Y32.7
X26.2Y1.051
X26.3Y64.275
X26.3Y61.725
X26.3Y56.9
X26.3Y55.4
X26.3Y42.3
X26.3Y40.8
X26.4Y54.0
X26.4Y52.8
X26.4Y39.4
X26.4Y38.2
X26.5Y23.2
X26.5Y22.0
X26.5Y20.9
X26.5Y19.8
X27.0Y78.8
X27.3Y32.7
X27.4Y64.275
X27.4Y61.725
X27.4Y47.3
X27.4Y40.8
X27.5Y56.9
X27.5Y55.4
X27.5Y54.0
X27.5Y52.8
X27.5Y39.4
X27.5Y38.2
X28.2Y1.051
X28.5Y64.275
X28.5Y61.725
X29.5Y54.9
X29.5Y47.9
X29.6Y78.8
X29.6Y64.275
X29.6Y61.725
X30.2Y1.051
X30.3Y55.8
X30.3Y54.1
X30.3Y48.8
X30.3Y47.1
X30.3Y8.9
X31.0Y44.9
X31.2Y34.2
X31.3Y63.0
X31.3Y61.9
X31.5Y8.9
X31.8Y51.1
X31.8Y44.1
X32.1Y78.8
X32.144Y23.0
X32.2Y1.051
X32.4Y63.0
X32.4Y61.9
X32.8Y11.0
X32.8Y9.011
X33.5Y50.0
X33.6Y63.0
X33.6Y61.9
X34.2Y1.051
X34.4Y34.5
X34.6Y78.8
X35.2Y51.1
X35.2Y50.0
X35.2Y44.1
X35.5Y34.5
X36.2Y44.1
X36.2Y1.051
X36.5Y38.5
X36.7Y12.0
X37.2Y78.8
X37.618Y38.5
X38.0Y55.8
X38.0Y48.812
X38.2Y1.051
X39.4Y55.8
X39.4Y48.812
X39.7Y78.8
X40.1Y54.9
X40.1Y47.9
X40.2Y1.051
X40.8Y55.8
X40.8Y48.812
X40.818Y38.49
X41.0Y78.8
X41.9Y54.2
X42.0Y48.8
X42.2Y1.051
X42.5Y78.8
X42.6Y55.0
X42.7Y47.9
X43.3Y10.0
X44.0Y78.8
X44.2Y1.051
X44.4Y65.55
X44.4Y64.5
X44.4Y63.0
X44.4Y61.9
X44.4Y10.0
X45.5Y78.8
X45.5Y64.5
X45.5Y61.9
X45.5Y10.0
X46.2Y1.051
X46.6Y64.5
X46.6Y61.9
X46.6Y59.4
X47.0Y78.8
X47.7Y64.5
X47.7Y61.9
X47.7Y59.4
X48.1Y42.0
X48.1Y40.6
X48.2Y1.051
X48.4Y78.8
X48.4Y77.7
X48.4Y76.6
X48.4Y75.5
X48.4Y73.508
X48.4Y72.4
X48.4Y71.3
X48.4Y70.2
X48.4Y69.1
X48.4Y68.0
X48.8Y65.55
X48.8Y64.5
X48.8Y63.0
X48.8Y61.9
X48.8Y60.45
X48.8Y59.4
X49.57Y73.508
X49.6Y68.0
X49.7Y42.0
X49.7Y40.6
X50.2Y1.051
X50.3Y64.275
X50.3Y61.725
X50.8Y78.8
X50.8Y77.7
X50.8Y76.6
X50.8Y75.5
X51.4Y64.275
X51.4Y61.725
X52.2Y1.051
X52.5Y64.275
X52.5Y61.725
X53.4Y78.8
X53.6Y64.275
X53.6Y61.725
X54.2Y1.051
X55.9Y78.8
X56.2Y1.051
X58.2Y10.6
X58.2Y1.051
X58.5Y78.8
X59.3Y10.6
X59.6Y53.3
X59.6Y52.2
X60.2Y26.7
X60.2Y25.1
X60.2Y1.051
X60.5Y23.3
X61.0Y78.8
X61.1Y20.4
X61.6Y28.3
X61.6Y26.7
X61.6Y25.1
X61.6Y23.3
X62.2Y1.051
X62.33Y19.0
X62.4Y52.2
X62.7Y23.3
X63.55Y78.8
X64.2Y1.051
X66.1Y78.8
X66.2Y1.051
X68.2Y1.051
X68.4Y25.2
X68.5Y26.6
X68.6Y78.8
X70.2Y1.051
X70.7Y39.8
X70.7Y37.992
X71.0Y15.4
X71.15Y78.8
X71.9Y39.8
X72.2Y1.051
X72.3Y37.992
X73.1Y39.8
X73.7Y78.8
X73.9Y37.992
X74.2Y1.051
X74.4Y34.5
X74.4Y33.5
X74.4Y32.5
X74.4Y28.0
X74.4Y27.0
X74.7Y5.4
X74.7Y4.4
X74.7Y6.4
X74.9Y38.0
X75.0Y78.8
X75.4Y28.0
X75.4Y27.0
X75.7Y5.4
X75.7Y4.4
X75.7Y6.4
X75.9Y38.0
X76.2Y1.051
X76.4Y28.0
X76.4Y27.0
X76.5Y78.8
X76.7Y5.4
X76.7Y4.4
X76.7Y6.4
X77.4Y28.0
X77.4Y27.0
X77.6Y20.2
X77.6Y19.2
X78.0Y78.8
X78.2Y1.051
X78.575Y18.9
X78.9Y65.55
X78.9Y64.5
X78.9Y63.0
X78.9Y61.9
X78.9Y60.45
X78.9Y59.4
X79.299Y14.9
X79.5Y78.8
X79.6Y1.051
X79.625Y18.9
X80.0Y64.5
X80.0Y61.9
X80.0Y59.4
X80.6Y19.2
X81.0Y78.8
X81.1Y64.5
X81.1Y61.9
X81.1Y59.4
X81.4Y16.8
X81.4Y15.7
X81.4Y14.6
X81.8Y23.4
X82.2Y64.5
X82.2Y61.9
X82.2Y59.4
X82.2Y1.051
X82.4Y78.8
X82.4Y77.7
X82.4Y76.6
X82.4Y75.5
X82.4Y73.508
X82.4Y72.4
X82.4Y71.2
X82.4Y70.0
X82.4Y68.8
X82.6Y22.1
X82.6Y20.2
X82.6Y18.9
X83.3Y65.55
X83.3Y64.5
X83.3Y63.0
X83.3Y61.9
X83.3Y60.45
X83.3Y59.4
X83.57Y73.508
X83.6Y68.8
X83.7Y20.2
X84.5Y44.5
X84.7Y1.051
X84.8Y78.8
X84.8Y77.7
X84.8Y76.6
X84.8Y75.5
X84.8Y64.275
X84.8Y61.725
X85.9Y64.275
X85.9Y61.725
X87.0Y64.275
X87.0Y61.725
X87.0Y44.5
X87.3Y1.051
X87.4Y78.8
X88.1Y64.275
X88.1Y61.725
X88.4Y20.75
X89.0Y18.992
X89.5Y44.5
X89.75Y23.3
X89.75Y18.1
X89.75Y16.5
X89.75Y14.9
X89.8Y1.051
X89.9Y78.8
X90.1Y7.5
X90.5Y26.1
X90.5Y24.9
X91.1Y6.5
X91.9Y44.5
X91.9Y40.3
X91.9Y39.0
X92.1Y7.5
X92.3Y1.051
X92.4Y78.8
X92.9Y35.1
X93.05Y40.3
X93.4Y4.511
X93.4Y3.4
X93.9Y35.1
X94.2Y40.3
X94.2Y39.0
X94.2Y1.051
X94.5Y44.5
X94.5Y4.511
X94.5Y3.4
X94.6Y60.45
X94.6Y59.3
X94.6Y58.2
X94.6Y57.1
X94.6Y56.0
X94.9Y35.1
X94.9Y26.1
X94.9Y24.9
X94.9Y23.1
X94.9Y22.0
X95.0Y78.8
X95.6Y4.511
X95.6Y3.4
X95.8Y11.9
X95.84Y21.65
X95.9Y35.1
X95.9Y26.1
X96.1Y59.2
X96.2Y1.051
X96.86Y21.65
X96.9Y35.1
X96.9Y26.1
X97.0Y44.5
X97.5Y78.8
X97.6Y59.2
X97.8Y23.1
X97.8Y22.0
X97.9Y35.1
X97.9Y26.1
X97.9Y24.9
X98.2Y54.8
X98.2Y1.051
X98.7Y37.011
X98.8Y59.2
X98.9Y26.1
X98.9Y24.9
X99.3Y54.8
X99.75Y44.5
X100.1Y78.8
X100.1Y19.2
X100.2Y1.051
X100.377Y54.8
X100.8Y37.025
X101.1Y19.2
X102.1Y19.2
X102.2Y1.051
X102.25Y44.5
X102.6Y78.8
X102.6Y57.2
X103.6Y57.2
X104.2Y1.051
X104.6Y57.2
X105.2Y78.8
X105.3Y21.261
X105.7Y60.1
X105.7Y58.3
X105.7Y57.2
X106.2Y1.051
X106.296Y21.261
X106.7Y60.1
X107.25Y23.3
X107.25Y20.75
X107.7Y78.8
X108.2Y1.051
X108.8Y65.7
X108.8Y64.6
X109.2Y78.8
X109.9Y65.7
X109.9Y64.6
X110.2Y1.051
X110.7Y78.8
X111.0Y65.7
X111.0Y64.6
X111.8Y78.8
X111.8Y77.3
X111.8Y76.0
X111.8Y74.5
X111.8Y73.0
X111.8Y71.5
X111.8Y70.0
X111.8Y5.0
X111.8Y3.0
X112.1Y65.7
X112.1Y64.6
X112.2Y1.051
X112.8Y7.0
X112.9Y78.8
X113.0Y68.8
X114.5Y68.8
X115.2Y65.7
X115.2Y64.6
X116.0Y68.8
X116.3Y65.7
X116.3Y64.6
X117.4Y65.7
X117.4Y64.6
X117.5Y68.8
X118.8Y67.3
X118.8Y66.0
X118.8Y64.7
X118.8Y62.05
X118.8Y59.5
X118.8Y56.95
X118.8Y54.4
X118.8Y51.9
X118.8Y49.35
X118.8Y46.8
X118.8Y44.3
X118.8Y41.7
X118.8Y39.2
X118.8Y36.65
X118.8Y34.1
X118.8Y31.55
X118.8Y29.0
X118.8Y26.45
X118.8Y23.9
X118.8Y21.4
X118.8Y19.0
X118.8Y16.6
X118.8Y14.2
X118.8Y11.8
X118.8Y9.4
X118.8Y7.2
T3
X23.1Y23.206
X23.1Y20.806
X25.5Y23.206
X25.57Y20.806
T5
X7.27Y34.26
X7.27Y32.27
X7.27Y29.73
X7.27Y27.74
X9.81Y34.26
X9.81Y32.27
X9.81Y29.73
X9.81Y27.74
T6
X3.13Y61.88
X3.13Y59.59
X3.13Y57.3
X3.13Y55.01
X3.13Y52.72
X5.11Y60.735
X5.11Y58.445
X5.11Y56.155
X5.11Y53.865
X5.11Y51.575
X7.09Y61.88
X7.09Y59.59
X7.09Y57.3
X7.09Y55.01
X7.09Y52.72
X32.96Y30.0
X35.5Y30.0
X38.04Y30.0
X98.15Y12.77
X98.15Y10.23
X100.69Y12.77
X100.69Y10.23
X103.23Y12.77
X103.23Y10.23
X105.77Y12.77
X105.77Y10.23
X108.31Y12.77
X108.31Y10.23
X110.85Y12.77
X110.85Y10.23
X114.63Y16.335
X114.63Y13.795
X114.63Y11.255
X114.63Y8.715
X117.17Y16.335
X117.17Y13.795
X117.17Y11.255
X117.17Y8.715
T7
X24.3Y22.006
T9
X3.7Y31.0
X4.5Y37.3
X4.5Y24.7
T4
G00X2.65Y20.32
M15
G01X2.05Y20.32
M16
G05
G00X2.65Y11.68
M15
G01X2.05Y11.68
M16
G05
G00X6.98Y20.32
M15
G01X6.08Y20.32
M16
G05
G00X6.98Y11.68
M15
G01X6.08Y11.68
M16
G05
T8
G00X5.11Y70.495
M15
G01X5.11Y68.495
M16
G05
G00X5.11Y45.505
M15
G01X5.11Y43.505
M16
G05
M30
